<svg version="1.1" width="30px" id="Layer_1" xmlns="http://www.w3.org/2000/svg" xmlns:xlink="http://www.w3.org/1999/xlink" x="0px" y="0px"
        viewBox="0 0 512 512" style="enable-background:new 0 0 512 512;" xml:space="preserve">
    <circle style="fill:#88C5CC;" cx="256" cy="256" r="256"/>
    <path style="fill:#F5F5F5;" d="M204,84h176c4.4,0,8,3.6,8,8v328c0,4.4-3.6,8-8,8H132c-4.4,0-8-3.6-8-8V168L204,84z"/>
    <g>
        <path style="fill:#E6E6E6;" d="M196,168c4.4,0,8-3.6,8-8V84l-80,84H196z"/>
        <rect x="256" y="128" style="fill:#E6E6E6;" width="108" height="16"/>
        <rect x="224" y="160" style="fill:#E6E6E6;" width="140" height="16"/>
        <rect x="144" y="192" style="fill:#E6E6E6;" width="220" height="16"/>
        <rect x="144" y="228" style="fill:#E6E6E6;" width="220" height="16"/>
        <rect x="144" y="264" style="fill:#E6E6E6;" width="220" height="16"/>
        <rect x="144" y="300" style="fill:#E6E6E6;" width="220" height="16"/>
        <rect x="144" y="336" style="fill:#E6E6E6;" width="188" height="16"/>
    </g>
</svg>